<?xml version="1.0" encoding="UTF-8"?>
<svg xmlns="http://www.w3.org/2000/svg" viewBox="0 0 512 512">
  <defs>
    <linearGradient id="gemGradient" x1="0%" y1="0%" x2="100%" y2="100%">
      <stop offset="0%" style="stop-color:#00ff55;stop-opacity:1" />
      <stop offset="100%" style="stop-color:#00aa44;stop-opacity:1" />
    </linearGradient>
  </defs>
  
  <!-- Gem shape -->
  <path d="M378.7 32H133.3L256 182.7L378.7 32zM32 405.3L133.3 32L32 182.7V405.3zM480 182.7L378.7 32L480 405.3V182.7zM370.7 437.3L256 329.3L141.3 437.3H370.7zM480 405.3L256 182.7L32 405.3L256 480L480 405.3z" fill="url(#gemGradient)"/>
  
  <!-- Highlights -->
  <path d="M256 182.7L133.3 32L32 405.3L256 182.7z" fill="white" opacity="0.2"/>
  <path d="M256 329.3L256 182.7L141.3 437.3L256 329.3z" fill="white" opacity="0.15"/>
  
  <!-- Shine effect -->
  <path d="M133.3 32L256 182.7L378.7 32L133.3 32z" fill="white" opacity="0.25"/>
</svg> 